<svg xmlns="http://www.w3.org/2000/svg" viewBox="0 0 2419.35 321.51"><defs><style>.cls-1{fill:#fff;}</style></defs><title>1Asset 3</title><g id="Layer_2" data-name="Layer 2"><g id="Layer_1-2" data-name="Layer 1"><path class="cls-1" d="M222.44,203.64l41.28,117.41H172l-33-100.9H109.62L91.73,321.05H0L56.87,0H185.29c33.49,0,60.09,11,80.27,33.48,20.18,22,27.06,50,21.1,83.93C279.78,156.4,258.68,185.29,222.44,203.64Zm-89-119.25L122.92,144h37.61c17.88.45,31.19-10.55,34.4-29.36s-6.43-30.27-24.77-30.27Z"/><path class="cls-1" d="M527.91,83.93H411l-6,34.86H510.48L495.8,201.35H390.31l-6.42,35.77H503.14l-14.68,84.39h-211L333.9.46H542.58Z"/><path class="cls-1" d="M709.07,321.51l-3.67-41.28H612.75L594.4,321.51H493L651.74.46H759.06l45.86,321.05ZM645.31,206.85h53.21l-9.18-98.61Z"/><path class="cls-1" d="M921.42,232.53h105.49l-15.6,89H814.09L870.51.46h91.73Z"/><path class="cls-1" d="M1086.07.46h91.73l-56.42,321.05h-91.73Z"/><path class="cls-1" d="M1439.22.46l-15.59,89H1348l-40.82,232.07H1215.4l40.82-232.07h-75.68l15.6-89Z"/><path class="cls-1" d="M1566.73,321.51l-3.67-41.28h-92.65l-18.35,41.28H1350.7L1509.4.46h107.32l45.86,321.05ZM1503,206.85h53.21L1547,108.24Z"/><path class="cls-1" d="M1930,.46l-15.6,89h-75.67l-40.82,232.07h-91.73L1747,89.44H1671.3l15.59-89Z"/><path class="cls-1" d="M2142.33,83.93h-117l-6,34.86H2124.9l-14.68,82.56H2004.73l-6.42,35.77h119.25l-14.68,84.39h-211l56.42-321H2157Z"/><path class="cls-1" d="M2323.49,321.51l-3.67-41.28h-92.65l-18.34,41.28H2107.46l158.7-321h107.32l45.87,321.05Zm-63.75-114.66h53.2l-9.17-98.61Z"/></g></g></svg>