<svg xmlns="http://www.w3.org/2000/svg" viewBox="0 0 2996.8 421.04"><defs><style>.cls-1{fill:#fff;}</style></defs><title>1Asset 2</title><g id="Layer_2" data-name="Layer 2"><g id="Layer_1-2" data-name="Layer 1"><path class="cls-1" d="M0,413.7l56.41-321H129.8l73.84,154.1L230.7,92.65h91.73L266,413.7H192.63L118.79,259.6,91.73,413.7Z"/><path class="cls-1" d="M340.77,388.48c-21.55-21.56-29.81-49.08-23.85-82.1L354.53,92.65h91.73L410.49,296.29c-4.13,23.85,6.88,35.77,32.56,35.77q39.21,0,45.41-35.77L524.23,92.65H616L578.35,306.38c-6.42,36.23-22.93,64.21-49.53,84.39C502.68,411,470.57,421,433,421,393.06,421,362.33,410,340.77,388.48Z"/><path class="cls-1" d="M896.65,295.83l41.28,117.41H846.2l-33-100.9H783.83l-17.89,100.9H674.21l56.87-321H859.5c33.48,0,60.08,11,80.27,33.48,20.18,22,27.06,50,21.09,83.93C954,248.59,932.89,277.48,896.65,295.83Zm-89-119.25L797.13,236.2h37.6c17.89.46,31.19-10.54,34.4-29.35s-6.42-30.27-24.76-30.27Z"/><path class="cls-1" d="M1202.11,176.12H1085.16l-6,34.86h105.48L1170,293.54H1064.52l-6.42,35.77h119.25l-14.68,84.39h-211l56.41-321h208.69Z"/><path class="cls-1" d="M1379.61,92.65c42.19,0,75.67,16,100.9,48.61s33.94,71.09,26.14,116.5q-12.37,69.48-61.91,112.83c-33,28.89-73.39,43.11-121.55,43.11h-133l56.41-321Zm-15.6,89h-36.69l-25.22,143.1h36.69c37.15,0,69.25-29.35,77-71.55C1423.18,211,1401.16,181.62,1364,181.62Z"/><path class="cls-1" d="M1683.69,413.7,1680,372.42h-92.64L1569,413.7H1467.67l158.69-321h107.32l45.87,321ZM1619.94,299h53.2L1664,200.43Z"/><path class="cls-1" d="M1821.28,372c-27.06-32.56-36.69-73.84-28.89-123.37,7.79-47.7,29.35-86.69,64.67-117.42,35.77-30.73,77-45.86,124.29-45.86,62.84,0,108.24,26.14,135.3,78.89l-83.93,44.49c-12.38-22.48-32.57-33.49-59.63-33.49-22,0-41.27,7.34-58.24,22s-27.06,33.48-31.19,55.95c-3.67,21.56,0,40.37,11,55.5s27.51,22.47,49.53,22.47c25.23,0,47.24-11.92,65.59-35.77l76.13,48.16c-33,49.07-86.68,77.51-148.6,77.51C1887.33,421,1848.8,404.53,1821.28,372Z"/><path class="cls-1" d="M2373,92.65l-15.6,89h-75.67L2241,413.7h-91.73L2190,181.62h-75.68l15.59-89Z"/><path class="cls-1" d="M2443.21,92.65h107.32l45.87,321h-95.86l-3.67-41.28h-92.64l-18.35,41.28H2284.52Zm0-36.24C2429,42.2,2424,23.39,2428.53,0h68.8c-2.29,12.38,1.84,18.35,12.84,18.35,10.55,0,17-6,19.27-18.35h68.79c-7.33,51.83-38.52,78-94,78C2478.07,78,2457.89,70.63,2443.21,56.41ZM2436.79,299H2490l-9.17-98.61Z"/><path class="cls-1" d="M2996.8,92.65l-56.42,321h-91.73l27.06-154.56-89.89,118.33h-8.26l-52.29-124.3-28,160.53h-91.73l56.41-321h91.73l48.16,131.63,98.61-131.63Z"/></g></g></svg>