<svg xmlns="http://www.w3.org/2000/svg" viewBox="0 0 3310.8 218.01"><defs><style>.cls-1{fill:#ee4046;}</style></defs><title>1Asset 4</title><g id="Layer_2" data-name="Layer 2"><g id="Layer_1-2" data-name="Layer 1"><path class="cls-1" d="M58.53,213.53,0,4.48H57.64l32.25,131.7L127.22,4.48h42.11l37.33,131.7L239.21,4.48h57.34L238.32,213.53H181.88l-33.45-118L115,213.53Z"/><path class="cls-1" d="M359.87,213.53l-58.54-209H359l32.26,131.7L428.56,4.48h42.11L508,136.18,540.55,4.48h57.34L539.65,213.53H483.21l-33.45-118-33.45,118Z"/><path class="cls-1" d="M661.2,213.53l-58.53-209h57.64l32.25,131.7L729.89,4.48H772l37.33,131.7L841.88,4.48h57.34L841,213.53H784.54l-33.44-118-33.45,118Z"/><path class="cls-1" d="M889.08,186.65c0-17,14.33-31.06,31.36-31.06a31.06,31.06,0,1,1-31.36,31.06Z"/><path class="cls-1" d="M1095.14,4.48h53.16V213.53h-41.21l-73.77-105.12V213.53H979.86V4.48h41.51l73.77,105.12Z"/><path class="cls-1" d="M1234.9,163.36h80.94v50.17H1181.45V4.48h132.89V54.35H1234.9v29h72V132.6h-72Z"/><path class="cls-1" d="M1384.82,213.53l-58.53-209h57.64l32.25,131.7,37.33-131.7h42.11L1533,136.18,1565.5,4.48h57.34l-58.23,209.05h-56.45l-33.44-118-33.45,118Z"/><path class="cls-1" d="M1624.05,166.05l45.69-26.58q11.64,27.76,41.21,27.77c16.43,0,24.49-4.78,24.49-14,0-6.28-4.78-11.05-14-14.94-3.88-1.49-12.84-4.18-26.28-8.06-38.22-11.05-62.11-29.57-62.11-65.4,0-19.42,6.86-34.95,20.6-46.89Q1674.67,0,1705.58,0c34.94,0,63.31,16.72,77.64,47.78l-44.79,26.28c-6.57-15.53-17.32-23.29-32.56-23.29-12.84,0-19.41,5.67-19.41,13.74,0,9.26,7.47,14.33,35.84,22.69a227.4,227.4,0,0,1,24.49,8.37,119.2,119.2,0,0,1,20.31,11.35c14.63,9.55,21.8,25.08,21.8,45.69s-7.17,36.43-21.8,48.08S1733.35,218,1709.46,218C1665.26,218,1635.69,198,1624.05,166.05Z"/><path class="cls-1" d="M2021.55,4.48V213.53h-53.16V100.94l-50.77,83.92h-5.38l-50.47-83.62V213.53h-53.46V4.48h53.46l53.16,89.29,53.46-89.29Z"/><path class="cls-1" d="M2182.22,213.53l-9-30.16h-69.58l-9,30.16h-57.94l69-209h65.1l69,209.05Zm-64.81-76.15h42.11l-21.2-71.08Z"/><path class="cls-1" d="M2428.3,213.53h-59.73l-60-93.47v93.47h-53.46V4.48h53.46v87.8l57-87.8h59.73L2359,106Z"/><path class="cls-1" d="M2497,163.36h80.94v50.17H2443.54V4.48h132.89V54.35H2497v29h72V132.6h-72Z"/><path class="cls-1" d="M2712.32,213.53,2675.88,146h-19.11v67.49h-53.46V4.48h83.62c21.21,0,39.12,6.87,53.46,20.61,14.63,13.44,21.8,30.76,21.8,51.66,0,25.09-13.74,47.19-35.54,59.43l43,77.35ZM2656.77,53.76v46.88h29.56c13.14.3,22.4-9.25,22.4-23.29s-9.26-23.59-22.4-23.59Z"/><path class="cls-1" d="M2787,186.65c0-17,14.33-31.06,31.36-31.06A31.06,31.06,0,1,1,2787,186.65Z"/><path class="cls-1" d="M3091,4.48V213.53h-53.16V100.94l-50.77,83.92h-5.38l-50.47-83.62V213.53h-53.46V4.48h53.46l53.16,89.29,53.46-89.29Z"/><path class="cls-1" d="M3209.26,4.48c29,0,52.86,10.15,72.27,30.16s29.27,44.8,29.27,74.37-9.85,54.65-29.27,74.66-43.3,29.86-72.27,29.86h-85.11V4.48Zm0,157.39c14.64,0,26.28-4.78,35.54-14.34,9.26-9.85,13.74-22.7,13.74-38.52s-4.48-28.67-13.74-38.23c-9.26-9.86-20.9-14.63-35.54-14.63H3179.1V161.87Z"/></g></g></svg>