<?xml version="1.0" encoding="UTF-8"?>
<svg width="234px" height="33px" viewBox="0 0 234 33" version="1.1" xmlns="http://www.w3.org/2000/svg" xmlns:xlink="http://www.w3.org/1999/xlink">
    <!-- Generator: Sketch 46.2 (44496) - http://www.bohemiancoding.com/sketch -->
    <title>Combined Shape</title>
    <desc>Created with Sketch.</desc>
    <defs></defs>
    <g id="Page-1" stroke="none" stroke-width="1" fill="none" fill-rule="evenodd">
        <g id="homepage" transform="translate(-603.000000, -34.000000)" fill="#EF4047">
            <path d="M607.693682,34.9158936 C607.911993,34.9455567 608.108472,34.9996484 608.283121,35.0790409 C608.45777,35.159306 608.624559,35.2727239 608.785236,35.4175499 C608.945913,35.5632484 609.127547,35.7595487 609.331013,36.0064508 L624.43812,55.0912023 C624.379612,54.4804903 624.336823,53.8880996 624.307133,53.3131578 C624.277443,52.7390885 624.263471,52.1981721 624.263471,51.6895362 L624.263471,34.8722713 L630.769132,34.8722713 L630.769132,66.6511089 L626.926863,66.6511089 C626.359254,66.6511089 625.878971,66.5629919 625.486011,66.3893752 C625.093052,66.214886 624.714064,65.8955709 624.350795,65.4305573 L609.352844,46.4976113 C609.396506,47.050742 609.432309,47.5916584 609.461999,48.1229778 C609.49169,48.6534249 609.505662,49.1515914 609.505662,49.616605 L609.505662,66.6511089 L603,66.6511089 L603,34.8722713 L606.885932,34.8722713 C607.205539,34.8722713 607.475371,34.8871029 607.693682,34.9158936 Z M645.37395,43.6838865 C646.872435,43.6838865 648.245173,43.9168295 649.488671,44.3818431 C650.733043,44.8477291 651.803639,45.5238746 652.69784,46.4102795 C653.593787,47.2975569 654.292382,48.3846243 654.794497,49.6714819 C655.296612,50.9583394 655.547232,52.4161963 655.547232,54.0441801 C655.547232,54.5536885 655.525401,54.9672278 655.481739,55.2882878 C655.438077,55.607603 655.357739,55.8623571 655.241597,56.0516779 C655.125456,56.2401262 654.969145,56.370993 654.771792,56.443406 C654.576186,56.5166915 654.324692,56.5524618 654.019057,56.5524618 L640.964072,56.5524618 C641.182382,58.4430518 641.756976,59.8136641 642.688727,60.6642987 C643.620477,61.5140609 644.821187,61.9406869 646.290855,61.9406869 C647.076774,61.9406869 647.753537,61.8447179 648.321145,61.6562696 C648.888753,61.4678213 649.394361,61.2566894 649.838842,61.0237464 C650.282449,60.7916758 650.689381,60.5805439 651.060509,60.3912232 C651.431637,60.2019025 651.821104,60.1076783 652.228908,60.1076783 C652.766826,60.1076783 653.174631,60.3048511 653.451449,60.6965792 L655.416246,63.1176163 C654.717651,63.9167766 653.964916,64.5676212 653.157166,65.0701499 C652.349416,65.5718063 651.519835,65.9635344 650.66755,66.2479517 C649.816138,66.5306242 648.965599,66.7269245 648.113313,66.8359802 C647.262775,66.9450359 646.450658,67 645.679585,67 C644.092902,67 642.604896,66.7426285 641.215566,66.2261406 C639.825363,65.7096527 638.609808,64.9427728 637.568902,63.9246286 C636.52887,62.9064844 635.706275,61.6423104 635.102864,60.1294895 C634.498579,58.6175409 634.196437,56.8578178 634.196437,54.8520649 C634.196437,53.3383715 634.454917,51.9075604 634.971004,50.554397 C635.487964,49.202106 636.23022,48.0173247 637.197774,46.9991804 C638.166201,45.9819086 639.338093,45.1748963 640.713451,44.5781434 C642.088809,43.9822629 643.641435,43.6838865 645.37395,43.6838865 Z M645.504936,48.3514714 C644.209916,48.3514714 643.197828,48.7187711 642.470416,49.4533704 C641.742131,50.1870973 641.262721,51.2453741 641.029565,52.6264557 L649.478192,52.6264557 C649.478192,52.0890291 649.409206,51.5646892 649.270361,51.0560533 C649.132388,50.5474174 648.907091,50.0928732 648.593597,49.693293 C648.280976,49.2937128 647.869679,48.969163 647.360578,48.7222609 C646.850604,48.4753587 646.232348,48.3514714 645.504936,48.3514714 Z M655.743363,44.0331265 L661.15747,44.0331265 C661.637754,44.0331265 662.052545,44.1421822 662.401842,44.3602937 C662.751139,44.5784051 662.962464,44.86195 663.034943,45.2109283 L665.305375,55.3531105 C665.480024,56.1234802 665.639828,56.8729111 665.785659,57.5996584 C665.930617,58.3264058 666.061604,59.047046 666.178619,59.7589617 C666.382957,59.047046 666.596902,58.3298955 666.823072,57.6110002 C667.047495,56.89036 667.270172,56.1383117 667.488483,55.3531105 L670.326524,45.1891172 C670.413848,44.854098 670.624299,44.5749153 670.959625,44.3489519 C671.29495,44.1238609 671.68005,44.0113154 672.116672,44.0113154 L675.129361,44.0113154 C675.609645,44.0113154 676.020942,44.1238609 676.36238,44.3489519 C676.704692,44.5749153 676.919509,44.854098 677.006834,45.1891172 L679.713887,55.3531105 C679.918226,56.1234802 680.125185,56.8729111 680.335637,57.5996584 C680.546961,58.3264058 680.746934,59.0610051 680.936428,59.8017116 C681.052569,59.0758367 681.194908,58.3517067 681.362571,57.6328114 C681.52936,56.9121711 681.707502,56.1531433 681.896995,55.3531105 L684.298414,45.2109283 C684.370893,44.86195 684.578725,44.5784051 684.920163,44.3602937 C685.262475,44.1421822 685.651941,44.0331265 686.088563,44.0331265 L691.240697,44.0331265 L684.21109,66.6512834 L678.709658,66.6512834 C678.418868,66.6512834 678.17174,66.5631664 677.967401,66.3895497 C677.763936,66.2150605 677.603259,65.9245361 677.487117,65.5171039 L674.256118,54.2398697 C674.110286,53.7321063 673.972314,53.2295775 673.841327,52.7357732 C673.710341,52.2410964 673.593326,51.7472921 673.49203,51.2526154 C673.389861,51.7612512 673.277212,52.2672698 673.153212,52.7680537 C673.030084,53.2705825 672.887746,53.7748561 672.727942,54.2843644 L669.45328,65.5171039 C669.23497,66.2735144 668.754686,66.6512834 668.012429,66.6512834 L662.77297,66.6512834 L655.743363,44.0331265 Z M706.99348,48.9840818 C706.819704,49.2606471 706.633704,49.4569474 706.437224,49.5729827 C706.240744,49.6898905 705.990123,49.7474719 705.683615,49.7474719 C705.364008,49.7474719 705.043528,49.6785487 704.723048,49.5407022 C704.402567,49.4019834 704.057636,49.2536676 703.686508,49.0931376 C703.31538,48.93348 702.897096,48.7842917 702.430784,48.6455729 C701.965346,48.5077264 701.434414,48.4388032 700.837116,48.4388032 C699.978717,48.4388032 699.320292,48.602823 698.860966,48.9299902 C698.403387,49.2562849 698.173724,49.7108292 698.173724,50.2927505 C698.173724,50.7141418 698.323048,51.0639926 698.621698,51.3396854 C698.919474,51.6162508 699.316799,51.8596631 699.811055,52.070795 C700.306184,52.2810544 700.865933,52.481717 701.492048,52.6710377 C702.118163,52.859486 702.75825,53.0706179 703.413183,53.3026885 C704.068115,53.5356315 704.709076,53.8078346 705.335191,54.1210426 C705.95956,54.4333782 706.521055,54.8181268 707.015311,55.2761608 C707.51044,55.7341949 707.906892,56.2908153 708.205541,56.9451496 C708.503317,57.5994839 708.652642,58.3838127 708.652642,59.3007532 C708.652642,60.4201012 708.449176,61.453077 708.041372,62.3979357 C707.633567,63.3427945 707.026663,64.1576589 706.218913,64.8407839 C705.411163,65.523909 704.413919,66.0552285 703.228055,66.4329975 C702.041318,66.8107665 700.677312,66.9992148 699.134291,66.9992148 C698.363218,66.9992148 697.591271,66.9268018 696.82107,66.7811034 C696.049123,66.6362774 695.303374,66.4408495 694.582948,66.1939473 C693.862522,65.9461727 693.196238,65.6512861 692.584968,65.3092873 C691.974571,64.968161 691.449752,64.5999889 691.01313,64.2082607 L692.584968,61.7226627 C692.774461,61.4312658 693.000631,61.202685 693.261731,61.0351754 C693.523704,60.8676658 693.866015,60.7830386 694.287792,60.7830386 C694.680751,60.7830386 695.034415,60.8711556 695.347036,61.0456448 C695.659657,61.2192615 695.997602,61.4085822 696.361744,61.613607 C696.725887,61.8160144 697.151156,62.0053351 697.639299,62.1798243 C698.126569,62.3543135 698.742205,62.441558 699.483589,62.441558 C700.007535,62.441558 700.452015,62.3865939 700.816158,62.2775382 C701.179427,62.1684825 701.47109,62.0201667 701.689401,61.8317184 C701.907712,61.6423977 702.066642,61.4312658 702.169685,61.1983228 C702.270981,60.9653798 702.321629,60.7254572 702.321629,60.478555 C702.321629,60.028373 702.169685,59.6567111 701.863176,59.3653142 C701.557541,59.0756622 701.156723,58.8243978 700.662467,58.6141384 C700.168211,58.4030065 699.604096,58.2067062 698.970122,58.024365 C698.337894,57.8428963 697.694313,57.6361267 697.039381,57.4023112 C696.384449,57.1711131 695.739995,56.891058 695.106894,56.5638908 C694.473793,56.2367236 693.909678,55.8214394 693.414549,55.3206556 C692.920293,54.8181268 692.520348,54.2039249 692.213839,53.4763052 C691.909077,52.7504303 691.75626,51.8710049 691.75626,50.8380291 C691.75626,49.8783388 691.941387,48.9657605 692.312516,48.1002943 C692.683644,47.2357005 693.2399,46.4758002 693.98303,45.8214659 C694.724413,45.1671315 695.656164,44.6471538 696.777408,44.2615328 C697.897779,43.8767842 699.207644,43.6839737 700.707002,43.6839737 C701.520865,43.6839737 702.31115,43.7572591 703.075238,43.9020851 C703.839325,44.0477836 704.556258,44.2510635 705.226036,44.5127972 C705.89494,44.7745309 706.505337,45.0833767 707.058973,45.4402071 C707.612609,45.7961649 708.099879,46.1852758 708.521655,46.6066671 L706.99348,48.9840818 Z M729.162242,53.8464839 C729.431201,54.4432368 729.689681,55.0548213 729.936809,55.6803649 C730.183936,55.0391173 730.446783,54.4170635 730.722727,53.813331 C730.999545,53.2095985 731.283349,52.6233149 731.574139,52.0553527 L739.738963,35.9857738 C739.883921,35.7092085 740.033246,35.4945869 740.186937,35.3419089 C740.339754,35.1892308 740.510037,35.0766853 740.69953,35.0033999 C740.889024,34.9301144 741.103842,34.8943442 741.343111,34.8943442 L742.184044,34.8943442 L747.816462,34.8943442 L747.816462,66.6513707 L741.310801,66.6513707 L741.310801,48.3736315 C741.310801,47.4863542 741.354463,46.5266638 741.44266,45.4945604 L733.014991,61.8311077 C732.753018,62.3397436 732.400227,62.7253646 731.955747,62.9870984 C731.512139,63.2488321 731.006531,63.379699 730.438923,63.379699 L729.434694,63.379699 C728.867086,63.379699 728.361478,63.2488321 727.916997,62.9870984 C727.47339,62.7253646 727.120599,62.3397436 726.858626,61.8311077 L718.388168,45.4727493 C718.446675,45.9813852 718.489464,46.4865313 718.519154,46.9881876 C718.548845,47.4898439 718.562816,47.9522402 718.562816,48.3736315 L718.562816,66.6513707 L712.057155,66.6513707 L712.057155,34.8943442 L717.689573,34.8943442 L718.529633,34.8943442 C718.770648,34.8943442 718.985466,34.9301144 719.174087,35.0033999 C719.362707,35.0766853 719.534736,35.1892308 719.68668,35.3419089 C719.839498,35.4945869 719.988822,35.7092085 720.134654,35.9857738 L728.321309,52.1207862 C728.612099,52.6739168 728.89241,53.249731 729.162242,53.8464839 Z M767.993095,66.6514579 C767.352134,66.6514579 766.868357,66.5633409 766.540891,66.3897242 C766.213425,66.215235 765.940973,65.8514251 765.722662,65.2991669 L765.242379,64.0550593 C764.674771,64.5357769 764.128994,64.9571682 763.605048,65.3209781 C763.081102,65.6839155 762.538818,65.9936338 761.979069,66.248388 C761.418447,66.5022697 760.821149,66.690718 760.188921,66.8146053 C759.554946,66.9384926 758.853732,66.9995638 758.081785,66.9995638 C757.047865,66.9995638 756.109129,66.8652071 755.265576,66.5956214 C754.42115,66.3251632 753.704217,65.9273279 753.114778,65.402988 C752.525339,64.8777756 752.070379,64.2243137 751.750772,63.4443472 C751.431165,62.6635082 751.270488,61.7631442 751.270488,60.7423826 C751.270488,59.9397325 751.473954,59.1152712 751.881758,58.2689988 C752.28869,57.4227264 752.995143,56.6541017 753.999373,55.9613797 C755.003603,55.2677853 756.35713,54.6884813 758.059954,54.2217228 C759.762778,53.7540919 761.910083,53.5211489 764.500122,53.5211489 L764.500122,52.5518616 C764.500122,51.2170196 764.22767,50.2520945 763.681893,49.657959 C763.136116,49.0629509 762.360676,48.7663194 761.356447,48.7663194 C760.555683,48.7663194 759.90075,48.8535639 759.39165,49.0271807 C758.882549,49.2025423 758.426716,49.3988426 758.026771,49.616954 C757.626825,49.8350654 757.237359,50.0313657 756.859244,50.2049825 C756.48113,50.3803441 756.029663,50.4675886 755.505718,50.4675886 C755.039406,50.4675886 754.642953,50.3550431 754.315487,50.1290797 C753.988021,49.9039887 753.729541,49.6239336 753.54092,49.2897868 L752.31838,47.1732334 C753.686752,45.9675133 755.203575,45.0688941 756.869723,44.4799932 C758.535871,43.8910923 760.322527,43.5970781 762.22969,43.5970781 C763.597189,43.5970781 764.831081,43.8186793 765.929621,44.2618818 C767.029034,44.7059567 767.959911,45.3236483 768.723999,46.1158291 C769.488087,46.9088823 770.074033,47.8502513 770.481838,48.9408085 C770.889642,50.0313657 771.093108,51.2239991 771.093108,52.5169638 L771.093108,66.6514579 L767.993095,66.6514579 Z M760.221231,62.5282791 C761.094474,62.5282791 761.858561,62.3764736 762.513494,62.0711176 C763.168426,61.7648891 763.830345,61.2710848 764.500122,60.5870873 L764.500122,57.4907772 C763.146595,57.4907772 762.03321,57.5780218 761.159967,57.7542558 C760.286724,57.9304899 759.595115,58.1503462 759.086014,58.4146973 C758.57604,58.6790483 758.224123,58.9791697 758.026771,59.3159338 C757.831164,59.6535703 757.732488,60.0199975 757.732488,60.4169603 C757.732488,61.1943095 757.943812,61.741333 758.365589,62.056286 C758.787365,62.3712389 759.405621,62.5282791 760.221231,62.5282791 Z M782.034408,34 L782.034408,52.2995503 L783.038638,52.2995503 C783.460414,52.2995503 783.784387,52.2410964 784.010557,52.1250611 C784.235854,52.0090258 784.450672,51.797894 784.654137,51.4925379 L788.933029,45.1236837 C789.18103,44.7450423 789.475313,44.4693494 789.816751,44.2948602 C790.159062,44.1203711 790.592191,44.0331265 791.116137,44.0331265 L797.316163,44.0331265 L791.465434,52.0814388 C791.188616,52.4592079 790.887347,52.7933546 790.559881,53.0847515 C790.232415,53.3761484 789.878751,53.6370097 789.500637,53.8699527 C790.155569,54.3646295 790.723177,55.0189638 791.203461,55.8329557 L797.578136,66.6512834 L791.465434,66.6512834 C790.956333,66.6512834 790.516219,66.5675286 790.144217,66.400019 C789.773089,66.2325094 789.47182,65.9384952 789.238664,65.5171039 L784.959773,57.5115414 C784.755434,57.148604 784.544982,56.9121711 784.326671,56.8031154 C784.108361,56.6940597 783.780894,56.6390956 783.344273,56.6390956 L782.034408,56.6390956 L782.034408,66.6512834 L775.266774,66.6512834 L775.266774,34 L782.034408,34 Z M808.523715,43.6838865 C810.022201,43.6838865 811.394939,43.9168295 812.638437,44.3818431 C813.882809,44.8477291 814.953405,45.5238746 815.847606,46.4102795 C816.743553,47.2975569 817.442148,48.3846243 817.944262,49.6714819 C818.446377,50.9583394 818.696998,52.4161963 818.696998,54.0441801 C818.696998,54.5536885 818.675167,54.9672278 818.631505,55.2882878 C818.587843,55.607603 818.507504,55.8623571 818.391363,56.0516779 C818.275222,56.2401262 818.118911,56.370993 817.921558,56.443406 C817.725952,56.5166915 817.474458,56.5524618 817.168823,56.5524618 L804.113837,56.5524618 C804.332148,58.4430518 804.906742,59.8136641 805.838493,60.6642987 C806.770243,61.5140609 807.970952,61.9406869 809.440621,61.9406869 C810.226539,61.9406869 810.903303,61.8447179 811.470911,61.6562696 C812.038519,61.4678213 812.544127,61.2566894 812.988608,61.0237464 C813.432215,60.7916758 813.839146,60.5805439 814.210275,60.3912232 C814.581403,60.2019025 814.97087,60.1076783 815.378674,60.1076783 C815.916592,60.1076783 816.324396,60.3048511 816.601214,60.6965792 L818.566012,63.1176163 C817.867417,63.9167766 817.114681,64.5676212 816.306932,65.0701499 C815.499182,65.5718063 814.669601,65.9635344 813.817315,66.2479517 C812.965903,66.5306242 812.115364,66.7269245 811.263079,66.8359802 C810.41254,66.9450359 809.600424,67 808.82935,67 C807.242668,67 805.754661,66.7426285 804.365331,66.2261406 C802.975128,65.7096527 801.759574,64.9427728 800.718668,63.9246286 C799.678635,62.9064844 798.85604,61.6423104 798.252629,60.1294895 C797.648345,58.6175409 797.346203,56.8578178 797.346203,54.8520649 C797.346203,53.3383715 797.604683,51.9075604 798.12077,50.554397 C798.637729,49.202106 799.379986,48.0173247 800.34754,46.9991804 C801.315966,45.9819086 802.487859,45.1748963 803.863217,44.5781434 C805.238575,43.9822629 806.791201,43.6838865 808.523715,43.6838865 Z M808.654702,48.3514714 C807.359682,48.3514714 806.347593,48.7187711 805.620182,49.4533704 C804.891897,50.1870973 804.412486,51.2453741 804.179331,52.6264557 L812.627958,52.6264557 C812.627958,52.0890291 812.558972,51.5646892 812.420126,51.0560533 C812.282154,50.5474174 812.056857,50.0928732 811.743363,49.693293 C811.430742,49.2937128 811.019444,48.969163 810.510343,48.7222609 C810.000369,48.4753587 809.382113,48.3514714 808.654702,48.3514714 Z M821.980218,66.6511089 L821.980218,44.032952 L825.997136,44.032952 C826.331588,44.032952 826.611899,44.0617427 826.838069,44.1201966 C827.062493,44.1786505 827.251987,44.2693848 827.405677,44.3923997 C827.558495,44.516287 827.674636,44.6803068 827.754101,44.8835867 C827.83444,45.087739 827.903426,45.3346411 827.961933,45.6251656 L828.333062,47.7408466 C829.162643,46.4609686 830.09352,45.4506764 831.12744,44.7090975 C832.160486,43.9675186 833.288717,43.5967291 834.511257,43.5967291 C835.544304,43.5967291 836.373885,43.8436313 837,44.338308 L836.126757,49.311249 C836.06825,49.616605 835.952108,49.8312267 835.77746,49.9542415 C835.602811,50.0781288 835.369655,50.1400725 835.078865,50.1400725 C834.831737,50.1400725 834.540074,50.107792 834.205622,50.0414861 C833.870297,49.9769251 833.44852,49.9437722 832.939419,49.9437722 C831.164116,49.9437722 829.766054,50.8895034 828.747852,52.7800934 L828.747852,66.6511089 L821.980218,66.6511089 Z" id="Combined-Shape"></path>
        </g>
    </g>
</svg>